<?xml version="1.0" encoding="UTF-8"?>
<svg id="Layer_2" data-name="Layer 2" xmlns="http://www.w3.org/2000/svg" viewBox="0 0 466.06 466.07">
  <defs>
    <style>
      .cls-1 {
        fill: #2d9bd6;
      }

      .cls-2 {
        fill: none;
        stroke: #898b8e;
        stroke-linecap: round;
        stroke-linejoin: round;
        stroke-width: 34.02px;
      }
    </style>
  </defs>
  <g id="Layer_1-2" data-name="Layer 1">
    <g>
      <polyline class="cls-2" points="30.88 428.17 64.78 394.27 110.02 349.04 139.46 319.6"/>
      <circle class="cls-2" cx="232.63" cy="233.84" r="124.82"/>
      <path class="cls-1" d="M62.11,230.36c0,28.67,7.06,55.68,19.52,79.41l-46.45,46.44C12.88,320.47,0,278.26,0,233.03,0,104.33,104.33,0,233.03,0c86.38,0,161.77,46.99,202.03,116.81h-74.27c-31.31-35.2-76.95-57.37-127.76-57.37-94.4,0-170.92,76.52-170.92,170.92Z"/>
      <path class="cls-1" d="M451.45,314.43c-33.02,88.56-118.35,151.64-218.42,151.64-47.98,0-92.57-14.5-129.63-39.36l43.75-48.53c25.23,14.69,54.57,23.11,85.88,23.11,63.84,0,119.51-35,148.86-86.86h69.56Z"/>
    </g>
  </g>
</svg>